<?xml version="1.0" encoding="UTF-8"?><svg id="Capa_1" xmlns="http://www.w3.org/2000/svg" viewBox="0 0 111.6 42.1"><defs><style>.cls-1{fill:#00478e;}.cls-2{fill:#10e015;}.cls-3{fill:none;}.cls-4{fill:#16ffc8;opacity:.5;}</style></defs><polygon class="cls-3" points="25.8 17.9 26.6 11.1 25.8 17.9 25.8 17.9"/><path class="cls-4" d="M7,15.7c0,0,.2.1.2.3.4,1.1.9,2.2,1.7,3.1,1.3,1.5,3,1.9,4.9,1.5.3,0,.4.3.2.5,0,0,0,.2,0,.2,2.5-.5,3.9-2.6,4.2-4.6.4-2.6-1.1-4.6-3.5-5.7-1.4-.7-2.8-1.6-3.6-2.9-.2-.3.2-.6.5-.4.8.8,1.7,1.5,2.8,2l1.2.6c.4.2.7-.3.4-.6-1.6-1.2-3.3-2-4.5-3.4-.3-.4-.4-.9-.2-1.3.2-.4.6-.7,1.1-.7h-4.1c-.4,0-.8.3-.9.8l-1.3,11.1c0-.3.4-.4.7-.3ZM15.5,18.9c1.3-1.1,1.8-2,2-3,0-.2.3-.1.3,0,0,1-.6,2.3-1.8,3.4-.4.4-.8-.2-.5-.4ZM14.6,19.7c.1-.1.3,0,.5,0,.1.1,0,.3,0,.5-.1.1-.3,0-.5,0-.1-.1,0-.3,0-.5Z"/><polygon class="cls-2" points="25.7 19 25.8 17.9 25.8 17.9 25.7 19"/><path class="cls-1" d="M20.5,4.2h-7.9c-.5,0-.9.3-1.1.7-.2.4-.2.9.2,1.3,1.2,1.4,2.9,2.3,4.5,3.4.4.3,0,.8-.4.6l-1.2-.6c-1.1-.5-2-1.2-2.8-2-.2-.2-.6,0-.5.4.8,1.3,2.2,2.2,3.6,2.9,2.4,1.1,3.8,3.1,3.5,5.7-.3,2-1.7,4.1-4.2,4.6-.1,0-.2-.1,0-.2.2-.2,0-.5-.2-.5-1.9.4-3.6,0-4.9-1.5-.8-.9-1.4-2-1.7-3.1,0-.1-.1-.2-.2-.3-.3-.1-.6,0-.7.3h0s-1.1,9-1.1,9c0,.5.3,1,.9,1h11.8c3.8,0,7.3-3.1,7.7-6.9v-1.2c.1,0,1-6.8,1-6.8.5-3.8-2.3-6.9-6.1-6.9Z"/><path class="cls-1" d="M28.3,17.9h0c-.8,0-1.3.8-.9,1.5,1.4,3,3.3,5.6.6,9.8-.1.2.1.3.3.2.5-.5.9-1.1,1.2-1.7s.6-.2.6.2c-.2,2.9-1.7,5.5-4.2,6.9-2.4,1.4-5.3.5-6.5-1.6-1.3-2.4-.4-5.1,2-6.4,0,0,1.6-.8-.1-.2s-2,.5-3.3.5h-2.6c-.4,0-.8.3-.9.8l-.6,5.1c-.5,3.8,2.3,6.9,6.1,6.9h5.8c3.8,0,7.3-3.1,7.7-6.9l1-8c.5-3.8-2.3-6.9-6.1-6.9Z"/><path class="cls-4" d="M20.8,27c-1.9,1.3-2.7,3.9-1.4,6.1,1.2,2.2,4.1,3,6.5,1.6,2.4-1.4,4-4,4.2-6.9,0-.3-.4-.5-.6-.2-.3.6-.7,1.2-1.2,1.7-.1.1-.4,0-.3-.2,2.8-4.3.8-6.9-.6-9.9s-.8-.5-.8,0c0,5.2-4.3,6.7-5.8,7.7ZM23,34.6c-.2,0-.3,0-.3-.3,0-.2,0-.3.3-.3.2,0,.3,0,.3.3,0,.2,0,.3-.3.3ZM28.5,30.6s.1,0,0,0c-.7,1.6-2.4,3.4-4.5,3.8-.5.1-.6-.5-.2-.6,2-.3,3.6-1.9,4.5-3.3Z"/><path class="cls-1" d="M16,19.3c1.3-1.1,1.8-2.4,1.8-3.4,0-.2-.3-.3-.3,0-.2,1-.7,1.9-2,3-.4.3,0,.8.5.4Z"/><path class="cls-1" d="M15.1,20.2c.1-.1.2-.3,0-.5-.1-.1-.3-.2-.5,0-.1.1-.2.3,0,.5.1.1.3.2.5,0Z"/><path class="cls-1" d="M24.1,34.5c2-.4,3.7-2.2,4.5-3.8,0,0,0,0,0,0-1,1.4-2.5,2.9-4.5,3.3-.4,0-.4.7.2.6Z"/><path class="cls-1" d="M22.9,34c-.2,0-.3.2-.3.3,0,.2.2.3.3.3.2,0,.3-.2.3-.3,0-.2-.2-.3-.3-.3Z"/><path class="cls-1" d="M45.7,21.1c.8-.2,1.4-.5,1.9-1s.9-1.2,1.2-2.1.6-2,.8-3.4c.3-1.8.2-3.2,0-4.2-.3-1-.9-1.7-1.8-2.1s-2-.6-3.5-.6-1.2,0-1.8,0c-.6,0-1.2,0-1.8,0-.6,0-1.1,0-1.6.1l-1.9,13.4c.9,0,1.7,0,2.7.1.9,0,1.9,0,3,0s2.1,0,2.8-.3ZM41.2,18.6l1.2-8.3h1.8c.5,0,.8,0,1.1.2.3.1.5.3.6.6s.2.7.2,1.2c0,.5,0,1.2-.2,2-.1.9-.3,1.6-.4,2.2-.2.6-.4,1-.6,1.3-.2.3-.5.5-.8.6-.3.1-.7.2-1.1.2s-1.1,0-1.6,0Z"/><path class="cls-1" d="M53.1,21.2l1.2-3.1h4.1l.3,3.1h3.6l-1.9-12.4c0-.3-.2-.5-.4-.7-.2-.2-.5-.3-.8-.3h-3.3c-.3,0-.6,0-.8.2-.2.1-.4.4-.5.6l-5.4,12.5h3.8ZM56.7,11.9c.1-.2.2-.5.3-.7,0-.2.1-.5.2-.7h.5c0,.2,0,.5,0,.7,0,.2,0,.5,0,.7l.4,3.4h-2.7l1.4-3.5Z"/><polygon class="cls-1" points="65.2 21.2 68.8 21.2 70.3 10.6 74.1 10.6 74.5 7.8 70.7 7.8 67 7.8 63.2 7.8 62.8 10.6 66.7 10.6 65.2 21.2"/><path class="cls-1" d="M75.5,21.2l1.2-3.1h4.1l.3,3.1h3.6l-1.9-12.4c0-.3-.2-.5-.4-.7-.2-.2-.5-.3-.8-.3h-3.3c-.3,0-.6,0-.8.2-.2.1-.4.4-.5.6l-5.4,12.5h3.8ZM79.1,11.9c.1-.2.2-.5.3-.7,0-.2.1-.5.2-.7h.5c0,.2,0,.5,0,.7,0,.2,0,.5,0,.7l.4,3.4h-2.7l1.4-3.5Z"/><path class="cls-1" d="M52,22.7c-.9-.4-2-.6-3.4-.6s-1.9.1-2.7.3c-.7.2-1.4.6-1.9,1.1s-.9,1.2-1.3,2.1c-.3.9-.6,2-.8,3.3-.2,1.8-.2,3.2,0,4.3.3,1,.8,1.8,1.7,2.2.9.4,2,.6,3.5.6s1.9-.1,2.7-.3c.8-.2,1.4-.6,1.9-1.1.5-.5,1-1.2,1.3-2.1s.6-2,.8-3.4c.2-1.8.2-3.3,0-4.3-.3-1-.9-1.7-1.8-2.2ZM50,28.9c-.2,1.2-.4,2.1-.6,2.7-.2.6-.5,1.1-.8,1.3s-.8.3-1.4.3-1-.1-1.2-.3c-.3-.2-.4-.6-.5-1.2s0-1.4.2-2.5c.2-1.2.4-2.1.6-2.7.2-.6.5-1,.8-1.3.3-.2.8-.3,1.4-.3s1,.1,1.2.3.4.6.5,1.2c0,.6,0,1.4-.2,2.5Z"/><polygon class="cls-1" points="54.8 35.7 58.4 35.7 60.3 22.3 56.7 22.3 54.8 35.7"/><path class="cls-1" d="M64.9,32.6c-.1-.1-.2-.4-.1-.7l1.4-9.6h-3.6l-1.5,10.4c0,.6,0,1.1.2,1.6.2.5.6.8,1,1.1s1,.4,1.6.4c1.1,0,2.1,0,3.2,0s2.1,0,2.9-.2v-2.8c0,0-4.5,0-4.5,0-.3,0-.5,0-.6-.2Z"/><path class="cls-1" d="M78.2,22.3c-.8,0-1.5,0-2.3,0s-1.7.3-2.3.8c-.6.5-.9,1.2-1,2.1l-1,7.3c-.1,1,0,1.8.6,2.5.5.6,1.3.9,2.4.9s1.4,0,2.1,0c.7,0,1.5,0,2.2,0,.7,0,1.4,0,2-.1v-2.6c0,0-4.7,0-4.7,0-.3,0-.5,0-.7-.2s-.2-.4-.1-.6l.3-2h5.1l.3-2.5h-5l.2-1.6c0-.3.2-.6.3-.7.2-.1.4-.2.8-.2h4.8l.4-2.6c-.6,0-1.3-.1-2-.2-.7,0-1.5,0-2.2,0Z"/><path class="cls-1" d="M92.5,22.5c-.8-.3-1.8-.4-2.9-.4s-1.5,0-2,0c-.6,0-1.1,0-1.6,0-.5,0-1,0-1.6.1l-1.9,13.4h3.5l.7-5.1c.5,0,1.1,0,1.8,0,.3,0,.6,0,.7.2s.2.4.2.8l.5,4.1h3.7l-.6-4.1c0-.5-.2-.9-.3-1.2-.2-.3-.4-.5-.6-.6-.2-.1-.5-.2-.7-.3h0c.7-.2,1.3-.4,1.7-.7.4-.3.7-.6.9-1.1.2-.4.3-.9.4-1.5.1-1.1,0-1.9-.3-2.5-.3-.6-.9-1-1.7-1.3ZM90.8,26.2c0,.5-.2.8-.3,1.1-.1.3-.3.4-.6.5-.3,0-.6.1-1.1.1h-1.8l.5-3.2c.6,0,1.2,0,2,0s.7,0,.9.1c.2,0,.3.2.4.5,0,.2,0,.5,0,.9Z"/><path class="cls-1" d="M100.2,25.1c.1,0,.3,0,.5-.1s.4,0,.7,0c.5,0,1.1,0,1.6,0,.5,0,1,0,1.5,0,.5,0,1,0,1.4,0l.3-2.3c-.7-.2-1.5-.4-2.3-.5-.8,0-1.6-.1-2.3-.2-.9,0-1.6,0-2.3.2-.7.1-1.2.3-1.6.6s-.8.6-1.1,1.1-.4,1.1-.5,1.8c0,.6,0,1.1,0,1.6s.3.9.7,1.3.9.8,1.6,1.1l2.5,1.1c.2.1.4.2.5.3.1,0,.2.2.3.3,0,.1,0,.3,0,.5,0,.2-.1.4-.3.6s-.3.2-.6.3-.7,0-1.1,0-.5,0-.9,0c-.4,0-.9,0-1.5,0s-1.3,0-2,0l-.3,2.5c1,.2,1.9.4,2.8.5s1.6.1,2.1.1c1.2,0,2.2-.1,3-.3.7-.2,1.3-.6,1.7-1.2.4-.6.6-1.3.8-2.3,0-.7,0-1.2,0-1.7-.1-.5-.3-.9-.7-1.3-.4-.4-.9-.7-1.6-1l-2.3-1c-.3-.1-.5-.3-.6-.4s-.2-.2-.3-.3c0-.1,0-.3,0-.4,0-.2,0-.3.2-.5s.2-.2.3-.3Z"/></svg>